<svg width="240" height="55" viewBox="0 0 240 55" fill="none" xmlns="http://www.w3.org/2000/svg">
<g clip-path="url(#clip0_15050_84236)">
<path d="M21.9348 37.5811C21.4559 37.5811 20.995 37.9729 20.9106 38.4517L20.4429 41.1043C20.3584 41.5832 20.6812 41.975 21.16 41.975H35.9994C36.4783 41.975 36.9391 41.5832 37.0236 41.1043L37.4913 38.4517C37.5757 37.9729 37.253 37.5811 36.7741 37.5811H21.9348Z" fill="black"/>
<path d="M59.5725 16.612C59.5572 16.5935 59.5572 16.5935 59.5725 16.612Z" fill="black"/>
<path d="M45.2393 29.0693L45.2876 28.7955L45.3856 28.2396L45.5946 27.0541L46.3832 22.5815C46.4677 22.1027 46.3085 21.4338 46.0296 21.0952L43.8023 18.391L43.6554 18.2127C43.3765 17.8741 43.0964 17.534 43.033 17.457C42.9695 17.38 42.6894 17.0399 42.4105 16.7013L42.3297 16.6031L40.0363 13.8188C39.7574 13.4802 39.1374 13.2031 38.6585 13.2031H28.6478C28.169 13.2031 27.4512 13.4802 27.0529 13.8188L23.7776 16.6031L23.6622 16.7013C23.2639 17.0399 22.8638 17.38 22.7732 17.457C22.6826 17.534 22.2826 17.8741 21.8842 18.2127L21.6745 18.391L18.4935 21.0952C18.0952 21.4338 17.7002 22.1027 17.6158 22.5815L16.8271 27.0541C16.7707 27.3739 16.6904 27.8294 16.6181 28.2396L16.5201 28.7955L16.4718 29.0693L12.2 53.2961C12.1155 53.775 12.4382 54.1668 12.9171 54.1668H15.5697C16.0485 54.1668 16.5094 53.775 16.5939 53.2961L20.8657 29.0693L21.012 28.2396L21.6888 24.4015C21.7732 23.9227 22.1682 23.2538 22.5665 22.9152L23.1172 22.447C23.5155 22.1084 24.1673 21.5543 24.5657 21.2157L26.3368 19.7101L28.0927 18.2174C28.123 18.1916 28.1526 18.1664 28.182 18.1415C28.5916 17.8361 29.2419 17.5971 29.6867 17.597H36.0701C36.5149 17.5971 37.0809 17.8361 37.3828 18.1415C37.4034 18.1664 37.4242 18.1916 37.4454 18.2174L38.6749 19.7101L39.915 21.2157C40.1939 21.5543 40.6503 22.1084 40.9293 22.447L41.3148 22.9152C41.5937 23.2538 41.7529 23.9227 41.6684 24.4015L40.9917 28.2396L40.8454 29.0693L40.8032 29.3086H40.8036L39.4984 36.7107C39.414 37.1896 39.2758 37.9732 39.1913 38.4521L38.7236 41.1046C38.6392 41.5835 38.9619 41.9753 39.4408 41.9753H42.0933C42.5722 41.9753 43.0331 41.5835 43.1175 41.1046L43.5853 38.4521C43.6697 37.9732 43.8079 37.1896 43.8923 36.7107L45.1975 29.3086H45.1971L45.2393 29.0693Z" fill="black"/>
<path d="M51.3325 29.0689L51.4021 28.6746L51.4788 28.2392C51.5562 27.8003 51.6471 27.2848 51.7091 26.9332L51.8258 26.2711C51.9103 25.7923 52.0485 25.0086 52.1329 24.5298L52.9215 20.0572C53.006 19.5783 52.8469 18.9094 52.5679 18.5708L52.2727 18.2124C51.9938 17.8737 51.5374 17.3196 51.2585 16.981L49.963 15.4083C49.6841 15.0696 49.2277 14.5156 48.9488 14.1769L48.6535 13.8184C48.3746 13.4798 48.1261 13.1781 48.1013 13.1479C48.0764 13.1178 47.8279 12.8161 47.549 12.4775L47.398 12.2941L47.2537 12.119C46.9748 11.7803 46.5184 11.2262 46.2395 10.8876L44.9441 9.31487C44.6652 8.97625 44.2088 8.42215 43.9298 8.08354L43.6346 7.72504C43.3557 7.38642 42.7357 7.10938 42.2568 7.10938H27.1981C26.7193 7.10938 26.0016 7.38642 25.6032 7.72504L25.1815 8.08354C24.7832 8.42215 24.1314 8.97625 23.7331 9.31487L21.883 10.8876C21.4847 11.2262 20.8329 11.7803 20.4346 12.119L20.2286 12.2941L20.0129 12.4775C19.6145 12.8161 19.2596 13.1178 19.2241 13.1479C19.1887 13.1781 18.8337 13.4798 18.4354 13.8184L18.0137 14.1769C17.6154 14.5156 16.9636 15.0696 16.5653 15.4083L14.7152 16.981C14.3169 17.3196 13.665 17.8737 13.2668 18.2124L12.8451 18.5708C12.4467 18.9094 12.0517 19.5783 11.9673 20.0572L11.1787 24.5298C11.0942 25.0086 10.9561 25.7923 10.8716 26.2711L10.7549 26.9332C10.6929 27.2848 10.602 27.8003 10.5246 28.2392L10.4478 28.6746L10.3783 29.0689L9.65919 33.1471C9.57475 33.626 9.43658 34.4096 9.35214 34.8885L6.10644 53.2958C6.02201 53.7746 6.34473 54.1664 6.8236 54.1664H9.47615C9.95502 54.1664 10.4159 53.7746 10.5003 53.2958L14.5208 30.4946C14.5885 30.1105 14.6908 29.5306 14.7722 29.0689L14.8279 28.7532L14.9185 28.2392L15.6165 24.2807C15.7009 23.8018 15.8391 23.0182 15.9235 22.5393L16.0403 21.8772C16.1247 21.3983 16.5197 20.7295 16.918 20.3909L17.4687 19.9227C17.867 19.5841 18.5189 19.03 18.9172 18.6914L19.4807 18.2124C19.879 17.8737 20.5308 17.3196 20.9291 16.981L22.6374 15.5288C22.6842 15.489 22.7347 15.4461 22.7877 15.4011C23.1856 15.0628 23.7343 14.5963 24.0859 14.2975L24.6494 13.8184C25.0477 13.4798 25.6995 12.9257 26.0978 12.5871L26.6485 12.119C27.0468 11.7803 27.7646 11.5033 28.2434 11.5033H39.662C40.1408 11.5033 40.7609 11.7803 41.0398 12.119L41.4254 12.5871C41.7043 12.9257 42.1607 13.4798 42.4396 13.8184L42.8342 14.2975C43.0803 14.5963 43.4645 15.0628 43.7431 15.4011C43.7802 15.4461 43.8156 15.489 43.8484 15.5288L45.0446 16.981C45.3234 17.3196 45.7799 17.8737 46.0588 18.2124L46.4533 18.6914C46.7322 19.03 47.1886 19.5841 47.4675 19.9227L47.8532 20.3909C48.132 20.7295 48.2912 21.3983 48.2067 21.8772L48.09 22.5393C48.0055 23.0182 47.8674 23.8018 47.7829 24.2807L47.0849 28.2392L46.9943 28.7532L46.9386 29.0689L46.8964 29.3082H46.8968C46.8245 29.7185 46.7441 30.1743 46.6877 30.4943L45.5917 36.7104C45.5072 37.1892 45.369 37.9729 45.2846 38.4517L44.8169 41.1043C44.7324 41.5832 45.0552 41.975 45.534 41.975H48.1866C48.6655 41.975 49.1264 41.5832 49.2108 41.1043L49.6785 38.4517C49.763 37.9729 49.9012 37.1892 49.9856 36.7104L50.3069 34.8882L50.6139 33.1468L51.2908 29.3082H51.2903L51.3325 29.0689Z" fill="black"/>
<path d="M57.3835 29.3084L57.4257 29.069L57.572 28.2393L57.9403 26.1504C57.9629 26.0222 57.9894 25.872 58.0176 25.7119C58.0949 25.2737 58.1855 24.7598 58.2474 24.409L58.2479 24.4059L58.3641 23.747L58.3647 23.7438C58.4491 23.2647 58.5869 22.4835 58.6711 22.0056L58.6717 22.0025L59.4598 17.533L59.4603 17.5299L59.4604 17.5296C59.5411 17.0714 59.3986 16.4402 59.1418 16.0899C59.1303 16.0741 59.1188 16.0581 59.1067 16.0435L58.8115 15.6851C58.5326 15.3464 58.0762 14.7924 57.7973 14.4537L56.5019 12.881C56.2229 12.5424 55.7665 11.9883 55.4876 11.6497L55.1923 11.2911C54.9134 10.9525 54.6649 10.6508 54.6401 10.6207C54.6152 10.5905 54.3667 10.2888 54.0878 9.95018L53.9368 9.76681L53.9349 9.76838L52.4665 7.98553L52.252 7.72516C51.9731 7.38655 51.5718 6.89932 51.3602 6.64243C51.2546 6.51427 51.1233 6.35488 50.9968 6.20119L50.9972 6.20083L50.8529 6.02569C50.574 5.68708 50.1176 5.13298 49.8387 4.79437L48.5433 3.2216C48.2644 2.88299 47.808 2.32889 47.5291 1.99028L47.2338 1.63177C47.2277 1.62441 47.2207 1.61726 47.2143 1.60996C46.9272 1.28142 46.3245 1.01611 45.856 1.01611H25.7479C25.2795 1.01611 24.5832 1.28143 24.1802 1.60996C24.1713 1.61726 24.1617 1.62441 24.153 1.63177L23.7313 1.99028C23.333 2.32889 22.6812 2.88299 22.2829 3.2216L20.4328 4.79437C20.0345 5.13298 19.3827 5.68708 18.9844 6.02569L18.7784 6.20083L18.7786 6.20119C18.5978 6.35488 18.4104 6.51427 18.2596 6.64243C17.9574 6.89932 17.3843 7.38655 16.9859 7.72516L16.6797 7.98553L14.5825 9.76838L14.5812 9.76681L14.3655 9.95018C13.9672 10.2888 13.6123 10.5905 13.5768 10.6207C13.5413 10.6508 13.1864 10.9525 12.7881 11.2911L12.3664 11.6497C11.968 11.9883 11.3162 12.5424 10.9179 12.881L9.06782 14.4537C8.6695 14.7924 8.01767 15.3464 7.61939 15.6851L7.1977 16.0435C7.18055 16.0581 7.1634 16.0741 7.14625 16.0899C6.76602 16.4402 6.40091 17.0714 6.31999 17.5296L6.31994 17.5299L6.31939 17.533L5.5313 22.0025L5.53075 22.0056C5.44649 22.4835 5.30874 23.2647 5.22425 23.7438L5.2237 23.747L5.10751 24.4059L5.10696 24.409C5.04512 24.7598 4.9545 25.2737 4.87723 25.7119C4.849 25.872 4.82251 26.0222 4.79992 26.1504L4.43158 28.2393L4.28528 29.069L4.01128 30.623C3.92684 31.1018 3.78867 31.8854 3.70423 32.3643L3.58748 33.0264C3.50305 33.5053 3.36487 34.2889 3.28044 34.7678L2.4918 39.2403C2.40736 39.7192 2.26919 40.5028 2.18475 40.9817L0.0134274 53.2959C-0.07101 53.7748 0.251708 54.1666 0.730581 54.1666H3.38313C3.862 54.1666 4.32289 53.7748 4.40733 53.2959L7.35342 36.5878L7.66047 34.8464L8.4491 30.3739C8.51104 30.0226 8.60183 29.5077 8.67918 29.069C8.70728 28.9097 8.73365 28.7601 8.75615 28.6325L8.82548 28.2393L8.8729 27.9704C8.95734 27.4915 9.09551 26.7079 9.17995 26.2291L9.27113 25.7119L9.96859 21.7565L9.96913 21.7534C10.0536 21.2742 10.1914 20.493 10.2756 20.0151L10.2762 20.012L10.3924 19.3531C10.393 19.3493 10.394 19.3454 10.3947 19.3416C10.4782 18.8846 10.8403 18.2597 11.2178 17.9112C11.4946 17.6759 11.8455 17.3776 12.0662 17.19C12.3293 16.9663 12.8706 16.5062 13.2689 16.1676L16.0321 13.8186C16.4304 13.48 16.9716 13.0199 17.2348 12.7961C17.498 12.5724 17.9478 12.19 18.2344 11.9464C18.521 11.7027 18.9708 11.3204 19.234 11.0966C19.2355 11.0953 19.2373 11.0938 19.2388 11.0925C19.5037 10.8674 20.0407 10.4108 20.4367 10.0742L23.1999 7.72517C23.5982 7.38655 24.1395 6.92644 24.4026 6.7027C24.6129 6.524 24.941 6.24501 25.2111 6.01544C25.6114 5.68186 26.3179 5.4106 26.7919 5.41008C26.7924 5.41008 26.7931 5.41004 26.7937 5.41004H32.5025L37.5519 5.41003L43.2607 5.41004C43.2613 5.41004 43.2619 5.41008 43.2625 5.41008C43.7363 5.4106 44.3472 5.68187 44.6298 6.01544C44.8189 6.24501 45.0487 6.524 45.1959 6.7027C45.3802 6.92644 45.7592 7.38655 46.0381 7.72517L47.9728 10.0742C48.2502 10.4108 48.6262 10.8674 48.8117 11.0925C48.8127 11.0938 48.814 11.0953 48.815 11.0966C48.9993 11.3204 49.3143 11.7028 49.5149 11.9464C49.7156 12.19 50.0306 12.5724 50.2149 12.7961C50.3991 13.0199 50.7781 13.48 51.057 13.8186L52.9918 16.1676C53.2707 16.5062 53.6497 16.9663 53.834 17.19C53.9885 17.3776 54.2342 17.6759 54.428 17.9112C54.6826 18.2597 54.8243 18.8846 54.7467 19.3416C54.7461 19.3454 54.7456 19.3493 54.745 19.3531L54.6288 20.012L54.6282 20.0151C54.544 20.493 54.4062 21.2742 54.3217 21.7534L54.3212 21.7565L53.6237 25.7119L53.5326 26.2291C53.4481 26.7079 53.3099 27.4915 53.2255 27.9704L53.1781 28.2393L53.1088 28.6325L53.0318 29.069L52.9896 29.3084H52.9903C52.918 29.7186 52.8376 30.1744 52.7812 30.4944L51.6851 36.7105C51.6007 37.1894 51.4625 37.973 51.3781 38.4519L50.9103 41.1044C50.8259 41.5833 51.1486 41.9751 51.6275 41.9751H54.2801C54.759 41.9751 55.2199 41.5833 55.3043 41.1044L55.772 38.4519C55.8564 37.973 55.9946 37.1894 56.0791 36.7105L56.4004 34.8883C56.4848 34.4094 56.623 33.6258 56.7074 33.1469L57.3843 29.3084H57.3835Z" fill="black"/>
<path d="M89.1276 18.5754L88.8364 18.2219C88.5575 17.8833 88.1011 17.3292 87.8222 16.9906L86.5226 15.4128C86.2437 15.0742 85.7873 14.5201 85.5084 14.1815L85.2173 13.828C84.9384 13.4894 84.6889 13.1865 84.6629 13.155C84.6434 13.1313 84.4974 12.954 84.3075 12.7236C84.245 12.6477 84.1777 12.566 84.1086 12.482L83.8174 12.1286C83.5385 11.7899 83.0821 11.2358 82.8032 10.8972L81.5037 9.3194C81.2248 8.9808 80.7684 8.42668 80.4894 8.08809L80.1983 7.73464C79.9194 7.396 79.2994 7.11896 78.8206 7.11896H71.2442L71.2451 7.11426H54.74C54.4398 7.11426 54.2637 7.22314 54.2425 7.38771C54.2279 7.48669 54.2698 7.60615 54.3756 7.73459L55.1935 8.72765C55.4724 9.06625 55.8737 9.55356 56.0854 9.81054C56.2971 10.0675 56.4711 10.2788 56.4722 10.2801C56.4733 10.2814 56.615 10.4535 56.7873 10.6626C56.9595 10.8717 57.1875 11.1486 57.294 11.2778C57.4005 11.4071 57.8794 11.5129 58.3583 11.5129H76.2257C76.7046 11.5129 77.3246 11.7899 77.6035 12.1286L77.9891 12.5967C78.268 12.9353 78.7245 13.4894 79.0033 13.828L79.3938 14.3021C79.6727 14.6407 80.1291 15.1948 80.408 15.5334L80.6528 15.8305L81.6083 16.9906C81.8872 17.3292 82.3436 17.8833 82.6224 18.2219L83.0129 18.696C83.2918 19.0346 83.7482 19.5887 84.0271 19.9273L84.4127 20.3954C84.6916 20.7341 84.8507 21.4029 84.7663 21.8818L84.6496 22.5438C84.5651 23.0228 84.427 23.8063 84.3425 24.2852L83.9283 26.6344L83.7671 27.5483L83.7591 27.5938L83.7511 27.6392C83.7469 27.663 83.6744 28.0742 83.59 28.5531L83.1757 30.9023C83.0913 31.3812 82.9531 32.1648 82.8687 32.6436L82.752 33.3057C82.6675 33.7846 82.2725 34.4535 81.8742 34.7921L81.3235 35.2602C80.9252 35.5988 80.2734 36.1529 79.8751 36.4915L79.3174 36.9656C78.9192 37.3042 78.2673 37.8583 77.869 38.1969L76.5044 39.3569L76.1549 39.6541C75.7565 39.9928 75.1047 40.5468 74.7064 40.8855L74.1488 41.3595C73.7505 41.6981 73.0987 42.2522 72.7004 42.5908L72.1497 43.059C71.7513 43.3976 71.0336 43.6747 70.5548 43.6747H20.8603C20.3815 43.6747 19.9206 44.0664 19.8361 44.5453L19.3684 47.1979C19.284 47.6767 19.6067 48.0686 20.0856 48.0686H71.6C72.0789 48.0686 72.7966 47.7915 73.1949 47.4529L73.6107 47.0994C74.009 46.7608 74.6608 46.2067 75.0592 45.8681L76.9151 44.2903C77.3134 43.9517 77.9652 43.3976 78.3635 43.059L78.7794 42.7055C78.8781 42.6216 78.9742 42.5399 79.0635 42.4639C79.3346 42.2334 79.5432 42.0562 79.5711 42.0325C79.6081 42.0009 79.9644 41.6981 80.3627 41.3595L80.7785 41.006C81.1768 40.6674 81.8287 40.1133 82.227 39.7747L84.083 38.1969C84.4813 37.8583 85.1331 37.3042 85.5314 36.9656L85.9472 36.6121C86.3455 36.2735 86.7405 35.6046 86.825 35.1258L87.6136 30.6531C87.6981 30.1743 87.8362 29.3907 87.9207 28.9118L87.9991 28.4667C88.0836 27.988 88.1528 27.5953 88.1531 27.5938C88.1533 27.5923 88.2226 27.1995 88.307 26.7208L88.3855 26.2757C88.4699 25.7968 88.6081 25.0132 88.6925 24.5343L89.4812 20.0618C89.5656 19.5829 89.4065 18.914 89.1276 18.5754Z" fill="black"/>
<path d="M95.6717 16.0582C95.6699 16.0559 95.6682 16.0533 95.6663 16.0511L95.3752 15.6976C95.0963 15.359 94.6398 14.8049 94.3609 14.4663L93.0614 12.8885C92.7824 12.5499 92.326 11.9958 92.0471 11.6572L91.756 11.3037C91.4771 10.965 91.2276 10.6622 91.2017 10.6307C91.1821 10.607 91.0361 10.4297 90.8463 10.1992L90.846 10.1995C90.776 10.1145 90.7086 10.0326 90.6473 9.95817L89.3762 8.41503L88.8159 7.73472C88.537 7.39612 88.1347 6.90777 87.922 6.64951C87.9169 6.64335 87.9111 6.63631 87.906 6.63003L87.9111 6.62562C87.8486 6.5497 87.7813 6.46799 87.7122 6.38408L87.421 6.03059C87.1421 5.69195 86.6857 5.13784 86.4068 4.79924L85.1073 3.22147C84.8283 2.88284 84.3719 2.32872 84.093 1.99012L83.8019 1.63667C83.7788 1.60862 83.7526 1.58119 83.725 1.55409C83.4205 1.25425 82.8633 1.021 82.4242 1.021H74.8478L74.8471 1.02474C74.7372 1.02433 74.6709 1.02387 74.6705 1.02333C74.6695 1.02204 74.2768 1.021 73.7979 1.021H49.7212C49.4211 1.021 49.2449 1.12984 49.2238 1.29445C49.2092 1.39343 49.2511 1.51289 49.3568 1.64133L50.1747 2.63435C50.4536 2.97295 50.855 3.46026 51.0666 3.71727C51.2783 3.97425 51.4524 4.18556 51.4535 4.18685C51.4545 4.1881 51.5963 4.36025 51.7685 4.56932C51.9407 4.77843 52.1688 5.05526 52.2752 5.18454C52.3817 5.31381 52.8606 5.41962 53.3395 5.41962H79.8243C79.903 5.41962 79.9838 5.4254 80.0647 5.43543C80.453 5.4977 80.8778 5.69961 81.1301 5.9478C81.3274 6.18738 81.5933 6.5102 81.7577 6.70977C81.9431 6.93491 82.323 7.39612 82.6019 7.73476L84.5326 10.0787C84.8115 10.4173 85.1914 10.8786 85.3768 11.1037C85.4695 11.2162 85.5945 11.368 85.7214 11.522C85.8483 11.6761 85.9769 11.8323 86.0767 11.9534C86.2763 12.1957 86.5912 12.5781 86.7767 12.8032C86.9621 13.0283 87.342 13.4895 87.6209 13.8281L89.5516 16.1721C89.8305 16.5107 90.2104 16.972 90.3958 17.1971C90.5424 17.3749 90.769 17.6501 90.9564 17.8776C91.2319 18.2179 91.3886 18.8803 91.3052 19.3562C91.3051 19.3568 91.305 19.3573 91.3049 19.3579L91.1883 20.0195L91.1882 20.02C91.1038 20.4987 90.9657 21.2819 90.8812 21.7609L90.8811 21.7614L90.467 24.1101L90.3059 25.0239L90.2978 25.0694L90.0925 26.2339C90.0081 26.7128 89.9197 27.2142 89.896 27.3481L89.8527 27.5939L89.8094 27.8397C89.7858 27.9736 89.6974 28.475 89.6129 28.9538L89.4076 30.1184L89.3996 30.1638L89.2384 31.0777L88.8243 33.4264L88.8242 33.4269C88.7398 33.9058 88.6016 34.689 88.5172 35.1678L88.5172 35.1682L88.4005 35.8298C88.4004 35.8304 88.4003 35.831 88.4002 35.8316C88.3158 36.3074 87.9254 36.9699 87.5299 37.3101C87.2623 37.5376 86.9386 37.8128 86.7294 37.9907C86.4645 38.2158 85.922 38.677 85.5236 39.0157L82.7663 41.3596C82.368 41.6982 81.8255 42.1595 81.5607 42.3846C81.2958 42.6097 80.846 42.9921 80.5611 43.2343C80.4185 43.3555 80.2348 43.5117 80.0536 43.6658C79.8724 43.8197 79.6938 43.9716 79.5615 44.0841C79.2967 44.3092 78.7541 44.7704 78.3558 45.109L75.5985 47.453C75.2002 47.7916 74.6576 48.2529 74.3928 48.478C74.158 48.6776 73.7783 49.0004 73.4965 49.24C73.1567 49.4881 72.6607 49.6901 72.2505 49.7523C72.166 49.7623 72.0832 49.7682 72.0045 49.7682H19.7861C19.3072 49.7682 18.8463 50.16 18.7619 50.6389L18.2942 53.2914C18.2097 53.7703 18.5325 54.1621 19.0113 54.1621H35.5713C36.0388 54.1621 36.4211 54.1631 36.4209 54.1644C36.4206 54.1657 36.8122 54.1668 37.2911 54.1668H39.9437C40.4225 54.1668 40.8145 54.1657 40.8148 54.1644C40.815 54.1631 41.1975 54.1621 41.6649 54.1621C42.1323 54.1621 42.5145 54.1631 42.5142 54.1644C42.514 54.1657 42.9056 54.1668 43.3845 54.1668H46.0371C46.516 54.1668 46.908 54.1657 46.9082 54.1644C46.9084 54.1631 47.291 54.1621 47.7583 54.1621C48.2257 54.1621 48.6079 54.1631 48.6077 54.1644C48.6074 54.1657 48.9991 54.1668 49.4779 54.1668H55.8095C56.2884 54.1668 56.6814 54.1657 56.6829 54.1644C56.6844 54.1631 57.0775 54.1621 57.5563 54.1621H58.2184C58.6973 54.1621 59.0879 54.1631 59.0864 54.1644C59.0849 54.1657 59.4754 54.1668 59.9543 54.1668H64.4269C64.9058 54.1668 65.2988 54.1657 65.3003 54.1644C65.3009 54.1639 65.3674 54.1634 65.4774 54.1631L65.4768 54.1668H73.0531C73.4923 54.1668 74.1317 53.9335 74.542 53.6337C74.5791 53.6066 74.615 53.5792 74.648 53.5511L75.0638 53.1977C75.4621 52.859 76.1139 52.3049 76.5122 51.9663L78.3682 50.3885C78.7665 50.0499 79.4183 49.4958 79.8166 49.1572L80.2325 48.8037C80.3312 48.7198 80.4273 48.6381 80.5166 48.5621L80.513 48.5578C80.5204 48.5514 80.5286 48.5444 80.5359 48.5382C80.8396 48.28 81.4142 47.7916 81.8125 47.453L82.6127 46.7728L84.4279 45.2296C84.5156 45.1551 84.6119 45.0732 84.7118 44.9883L84.712 44.9886C84.9831 44.7581 85.1916 44.5808 85.2195 44.5571C85.2566 44.5255 85.6129 44.2227 86.0112 43.8841L86.427 43.5306C86.8253 43.192 87.4771 42.6379 87.8755 42.2993L89.7314 40.7215C90.1297 40.3829 90.7816 39.8288 91.1799 39.4902L91.5957 39.1367C91.5983 39.1344 91.6009 39.1319 91.6036 39.1296C91.9992 38.7889 92.3896 38.1261 92.4734 37.6504C92.5235 37.3666 92.5857 37.0139 92.6391 36.7107L93.2621 33.1778L93.2622 33.1773C93.3466 32.6986 93.4847 31.9153 93.5691 31.4364L93.5692 31.436L93.6476 30.9913L93.686 30.7738C93.7185 30.5891 93.7591 30.3589 93.8015 30.1184C93.869 29.7356 93.9411 29.3266 93.993 29.0325L94.0775 28.5532C94.1619 28.0743 94.2345 27.6631 94.2386 27.6394L94.2467 27.5939L94.2547 27.5484C94.2589 27.5247 94.3314 27.1135 94.4158 26.6346L94.5003 26.1553C94.5522 25.8612 94.6243 25.4522 94.6918 25.0694C94.7342 24.8289 94.7748 24.5987 94.8074 24.4139L94.8457 24.1965L94.9241 23.7519L94.9242 23.7514C95.0087 23.2725 95.1468 22.4892 95.2312 22.0105L95.2313 22.01L95.8542 18.4771C95.9077 18.1739 95.9699 17.8212 96.0199 17.5374C96.1038 17.0617 95.9472 16.3989 95.6717 16.0582Z" fill="black"/>
<path d="M82.5893 21.0994L80.2192 18.222C79.9403 17.8834 79.6593 17.5422 79.5947 17.4638C79.5514 17.4113 79.411 17.2408 79.2393 17.0323C79.1546 16.9294 79.0624 16.8175 78.9702 16.7055L76.6 13.8281C76.3212 13.4894 75.7012 13.2124 75.2223 13.2124H59.7642C59.4644 13.2124 59.2884 13.3212 59.2673 13.4856C59.2528 13.5844 59.2946 13.7037 59.4002 13.8321L60.2173 14.824C60.4959 15.1623 60.8968 15.6491 61.1082 15.9058C61.3197 16.1625 61.4936 16.3736 61.4946 16.3749C61.4957 16.3761 61.6373 16.5481 61.8094 16.757C61.9814 16.9658 62.2092 17.2424 62.3155 17.3715C62.4219 17.5007 62.9003 17.6063 63.3787 17.6063H72.6275C73.1064 17.6063 73.7264 17.8834 74.0053 18.222L75.5845 20.1393L77.8745 22.9195C78.1534 23.2581 78.3125 23.9269 78.2281 24.4058L77.8199 26.7208C77.7355 27.1996 77.6662 27.5923 77.6659 27.5938C77.6657 27.5953 77.5964 27.9881 77.512 28.4668L77.1038 30.7818C77.0194 31.2607 76.6244 31.9296 76.226 32.2682L72.9557 35.0483L70.7003 36.9657C70.302 37.3043 69.5843 37.5813 69.1054 37.5813H58.5363C58.0575 37.5813 57.5966 37.9731 57.5122 38.452L57.3731 39.2405L57.0661 40.9819L57.0444 41.1046C56.96 41.5834 57.2827 41.9752 57.7616 41.9752H70.1506C70.6295 41.9752 71.3472 41.6982 71.7455 41.3596L75.1304 38.4821C75.262 38.3702 75.3938 38.2582 75.5148 38.1553C75.76 37.9469 75.9605 37.7764 76.0223 37.7238C76.1145 37.6455 76.5159 37.3043 76.9142 36.9657L80.299 34.0882C80.6974 33.7496 81.0924 33.0807 81.1768 32.6018L81.8907 28.5531C81.9751 28.0743 82.0476 27.663 82.0518 27.6393L82.0598 27.5938L82.0679 27.5483C82.072 27.5246 82.1446 27.1134 82.229 26.6345L82.9429 22.5858C83.0273 22.1069 82.8682 21.4381 82.5893 21.0994Z" fill="black"/>
<path d="M126.535 53.715L125.18 49.287C125.119 49.1667 125.044 49.1062 124.954 49.1062H113.839C113.748 49.1062 113.673 49.1667 113.613 49.287L112.303 53.715C112.212 54.0162 112.016 54.1668 111.715 54.1668H105.977C105.796 54.1668 105.661 54.1146 105.57 54.0086C105.48 53.9034 105.464 53.7453 105.525 53.5341L115.285 22.9899C115.375 22.6894 115.571 22.5381 115.872 22.5381H122.966C123.266 22.5381 123.463 22.6894 123.553 22.9899L133.313 53.5341C133.343 53.5947 133.358 53.6696 133.358 53.76C133.358 54.0313 133.192 54.1668 132.861 54.1668H127.123C126.821 54.1668 126.626 54.0162 126.535 53.715ZM115.42 44.181H123.372C123.553 44.181 123.613 44.0906 123.553 43.9101L119.487 30.4904C119.456 30.3704 119.411 30.3175 119.351 30.3322C119.29 30.3477 119.245 30.4 119.215 30.4904L115.239 43.9101C115.209 44.0906 115.269 44.181 115.42 44.181Z" fill="black"/>
<path d="M143.998 54.0086C143.892 53.9034 143.84 53.7755 143.84 53.6246V23.0803C143.84 22.9301 143.892 22.8022 143.998 22.6963C144.103 22.5911 144.231 22.5381 144.382 22.5381H149.669C149.819 22.5381 149.947 22.5911 150.053 22.6963C150.158 22.8022 150.211 22.9301 150.211 23.0803V48.4735C150.211 48.6245 150.286 48.6994 150.437 48.6994H165.212C165.362 48.6994 165.49 48.7524 165.596 48.8576C165.701 48.9635 165.754 49.0914 165.754 49.2416V53.6246C165.754 53.7755 165.701 53.9034 165.596 54.0086C165.49 54.1146 165.362 54.1668 165.212 54.1668H144.382C144.231 54.1668 144.103 54.1146 143.998 54.0086Z" fill="black"/>
<path d="M176.349 54.0086C176.243 53.9034 176.191 53.7755 176.191 53.6246V23.0803C176.191 22.9301 176.243 22.8022 176.349 22.6963C176.455 22.5911 176.582 22.5381 176.733 22.5381H182.02C182.17 22.5381 182.298 22.5911 182.404 22.6963C182.509 22.8022 182.562 22.9301 182.562 23.0803V48.4735C182.562 48.6245 182.637 48.6994 182.788 48.6994H197.563C197.713 48.6994 197.841 48.7524 197.947 48.8576C198.052 48.9635 198.105 49.0914 198.105 49.2416V53.6246C198.105 53.7755 198.052 53.9034 197.947 54.0086C197.841 54.1146 197.713 54.1668 197.563 54.1668H176.733C176.582 54.1668 176.455 54.1146 176.349 54.0086Z" fill="black"/>
<path d="M214.349 53.9632C214.243 53.858 214.191 53.7305 214.191 53.5792V42.1479C214.191 42.028 214.175 41.9375 214.146 41.8766L204.838 23.1708C204.777 23.0508 204.748 22.9604 204.748 22.8998C204.748 22.6588 204.913 22.5381 205.244 22.5381H210.938C211.239 22.5381 211.45 22.6736 211.57 22.9449L217.218 34.9637C217.309 35.1442 217.399 35.1442 217.489 34.9637L223.137 22.9449C223.257 22.6736 223.468 22.5381 223.77 22.5381H229.553C229.764 22.5381 229.907 22.5911 229.983 22.6963C230.057 22.8022 230.05 22.9604 229.96 23.1708L220.562 41.8766C220.531 41.9375 220.517 42.028 220.517 42.1479V53.5792C220.517 53.7305 220.464 53.858 220.359 53.9632C220.253 54.0692 220.125 54.1214 219.974 54.1214H214.733C214.582 54.1214 214.454 54.0692 214.349 53.9632Z" fill="black"/>
<path d="M115.103 17.0794L114.419 14.8614C114.391 14.8063 114.356 14.7785 114.315 14.7785H108.842C108.801 14.7785 108.766 14.8063 108.739 14.8614L108.055 17.0794C108.013 17.2177 107.923 17.2867 107.785 17.2867H105.712C105.63 17.2867 105.567 17.2627 105.526 17.2142C105.485 17.1659 105.477 17.0934 105.505 16.9965L110.003 2.98364C110.045 2.84571 110.134 2.77637 110.273 2.77637H112.864C113.002 2.77637 113.092 2.84571 113.133 2.98364L117.652 16.9965C117.666 17.0244 117.673 17.0586 117.673 17.1001C117.673 17.2244 117.597 17.2867 117.445 17.2867H115.372C115.234 17.2867 115.144 17.2177 115.103 17.0794ZM109.464 12.8922H113.672C113.755 12.8922 113.783 12.8507 113.755 12.7678L111.62 5.82355C111.606 5.76854 111.585 5.74065 111.558 5.74065C111.53 5.74065 111.509 5.76854 111.496 5.82355L109.381 12.7678C109.367 12.8507 109.395 12.8922 109.464 12.8922Z" fill="black"/>
<path d="M134.016 2.84888C134.064 2.80071 134.123 2.77637 134.192 2.77637H136.099C136.168 2.77637 136.227 2.80071 136.275 2.84888C136.324 2.89756 136.348 2.95613 136.348 3.02509V17.0379C136.348 17.1073 136.324 17.1659 136.275 17.2142C136.227 17.2627 136.168 17.2867 136.099 17.2867H134.254C134.116 17.2867 134.019 17.2317 133.964 17.1209L127.994 7.33682C127.966 7.29536 127.939 7.27812 127.911 7.28497C127.883 7.29207 127.87 7.32313 127.87 7.37827L127.911 17.0379C127.911 17.1073 127.887 17.1659 127.839 17.2142C127.79 17.2627 127.731 17.2867 127.662 17.2867H125.755C125.686 17.2867 125.628 17.2627 125.579 17.2142C125.531 17.1659 125.507 17.1073 125.507 17.0379V3.02509C125.507 2.95613 125.531 2.89756 125.579 2.84888C125.628 2.80071 125.686 2.77637 125.755 2.77637H127.6C127.738 2.77637 127.835 2.83177 127.89 2.94218L133.84 12.7264C133.867 12.7678 133.895 12.7853 133.923 12.7781C133.95 12.7714 133.964 12.7402 133.964 12.6849L133.943 3.02509C133.943 2.95613 133.967 2.89756 134.016 2.84888Z" fill="black"/>
<path d="M144.254 17.2142C144.206 17.1659 144.182 17.1073 144.182 17.038V3.02509C144.182 2.95613 144.206 2.89756 144.254 2.84888C144.303 2.80071 144.361 2.77637 144.43 2.77637H149.488C150.469 2.77637 151.333 2.94941 152.079 3.29461C152.826 3.64018 153.402 4.13408 153.81 4.77668C154.218 5.41928 154.422 6.16913 154.422 7.02585V13.0372C154.422 13.8943 154.218 14.6438 153.81 15.2864C153.402 15.929 152.826 16.4232 152.079 16.7684C151.333 17.114 150.469 17.2867 149.488 17.2867H144.43C144.361 17.2867 144.303 17.2627 144.254 17.2142ZM146.69 15.2137H149.592C150.324 15.2137 150.908 14.9825 151.344 14.5194C151.779 14.0566 152.003 13.4382 152.017 12.6641V7.41972C152.017 6.63197 151.796 6.00687 151.354 5.54364C150.911 5.0808 150.318 4.84932 149.571 4.84932H146.69C146.621 4.84932 146.586 4.88393 146.586 4.95289V15.1101C146.586 15.1795 146.621 15.2137 146.69 15.2137Z" fill="black"/>
<path d="M162.328 17.2142C162.28 17.1659 162.256 17.1073 162.256 17.038V3.02509C162.256 2.95613 162.28 2.89756 162.328 2.84888C162.377 2.80071 162.435 2.77637 162.504 2.77637H167.79C168.868 2.77637 169.822 2.96297 170.651 3.33606C171.48 3.70915 172.123 4.24133 172.579 4.93223C173.035 5.62339 173.263 6.41786 173.263 7.31603V12.747C173.263 13.6454 173.035 14.44 172.579 15.1308C172.123 15.8221 171.48 16.3539 170.651 16.727C169.822 17.1001 168.868 17.2867 167.79 17.2867H162.504C162.435 17.2867 162.377 17.2627 162.328 17.2142ZM165.8 14.3432H167.935C168.488 14.3432 168.937 14.1462 169.283 13.7524C169.628 13.3586 169.808 12.8299 169.822 12.1667V7.89638C169.822 7.23312 169.646 6.70448 169.293 6.31073C168.941 5.91686 168.481 5.71986 167.915 5.71986H165.8C165.731 5.71986 165.697 5.75459 165.697 5.82355V14.2395C165.697 14.3088 165.731 14.3432 165.8 14.3432Z" fill="black"/>
<path d="M183.78 16.8412C182.931 16.3923 182.271 15.7601 181.801 14.9446C181.331 14.1294 181.096 13.1826 181.096 12.1047V7.95892C181.096 6.90888 181.331 5.97927 181.801 5.17085C182.271 4.36243 182.931 3.73378 183.78 3.2845C184.63 2.8356 185.615 2.61084 186.734 2.61084C187.854 2.61084 188.842 2.8356 189.699 3.2845C190.555 3.73378 191.219 4.36243 191.689 5.17085C192.158 5.97927 192.393 6.90888 192.393 7.95892V12.1047C192.393 13.1826 192.158 14.1294 191.689 14.9446C191.219 15.7601 190.555 16.3923 189.699 16.8412C188.842 17.2903 187.854 17.515 186.734 17.515C185.615 17.515 184.63 17.2903 183.78 16.8412ZM188.341 13.9288C188.748 13.5007 188.952 12.9271 188.952 12.2084V7.91746C188.952 7.21262 188.748 6.64266 188.341 6.20733C187.933 5.772 187.398 5.55433 186.734 5.55433C186.085 5.55433 185.556 5.772 185.149 6.20733C184.741 6.64266 184.537 7.21262 184.537 7.91746V12.2084C184.537 12.9271 184.741 13.5007 185.149 13.9288C185.556 14.3574 186.085 14.5714 186.734 14.5714C187.398 14.5714 187.933 14.3574 188.341 13.9288Z" fill="black"/>
<path d="M208.529 2.84888C208.577 2.80071 208.636 2.77637 208.705 2.77637H211.649C211.718 2.77637 211.777 2.80071 211.825 2.84888C211.873 2.89756 211.898 2.95613 211.898 3.02509V17.0379C211.898 17.1073 211.873 17.1659 211.825 17.2142C211.777 17.2627 211.718 17.2867 211.649 17.2867H208.83C208.692 17.2867 208.595 17.2317 208.54 17.1209L203.772 9.20237C203.744 9.16092 203.717 9.14381 203.689 9.15053C203.661 9.15763 203.648 9.18881 203.648 9.24383L203.668 17.0379C203.668 17.1073 203.644 17.1659 203.596 17.2142C203.547 17.2627 203.489 17.2867 203.42 17.2867H200.476C200.407 17.2867 200.348 17.2627 200.3 17.2142C200.251 17.1659 200.227 17.1073 200.227 17.0379V3.02509C200.227 2.95613 200.251 2.89756 200.3 2.84888C200.348 2.80071 200.407 2.77637 200.476 2.77637H203.316C203.454 2.77637 203.551 2.83177 203.606 2.94218L208.353 10.84C208.381 10.8815 208.408 10.8989 208.436 10.8917C208.464 10.885 208.478 10.8539 208.478 10.7985L208.457 3.02509C208.457 2.95613 208.481 2.89756 208.529 2.84888Z" fill="black"/>
<path d="M229.961 5.64734C229.913 5.6959 229.854 5.71986 229.785 5.71986H223.276C223.207 5.71986 223.173 5.75459 223.173 5.82355V8.37317C223.173 8.44251 223.207 8.47687 223.276 8.47687H227.443C227.512 8.47687 227.57 8.50121 227.619 8.54938C227.667 8.59793 227.691 8.65663 227.691 8.72559V11.1508C227.691 11.2202 227.667 11.2789 227.619 11.3271C227.57 11.3757 227.512 11.3997 227.443 11.3997H223.276C223.207 11.3997 223.173 11.4343 223.173 11.5033V14.2395C223.173 14.3088 223.207 14.3432 223.276 14.3432H229.785C229.854 14.3432 229.913 14.3674 229.961 14.4157C230.01 14.4642 230.034 14.5229 230.034 14.5919V17.0379C230.034 17.1073 230.01 17.1659 229.961 17.2142C229.913 17.2627 229.854 17.2867 229.785 17.2867H219.98C219.911 17.2867 219.852 17.2627 219.804 17.2142C219.756 17.1659 219.731 17.1073 219.731 17.0379V3.02509C219.731 2.95613 219.756 2.89756 219.804 2.84888C219.852 2.80071 219.911 2.77637 219.98 2.77637H229.785C229.854 2.77637 229.913 2.80071 229.961 2.84888C230.01 2.89756 230.034 2.95613 230.034 3.02509V5.47113C230.034 5.54048 230.01 5.59904 229.961 5.64734Z" fill="black"/>
<path d="M236.776 7.48054C236.327 7.48054 235.906 7.39529 235.514 7.22469C235.122 7.05419 234.779 6.82251 234.486 6.52967C234.193 6.23693 233.962 5.89427 233.791 5.50202C233.621 5.10966 233.535 4.68899 233.535 4.2398C233.535 3.7964 233.621 3.37841 233.791 2.98616C233.962 2.59391 234.193 2.2527 234.486 1.96275C234.779 1.6728 235.122 1.44257 235.514 1.27197C235.906 1.10147 236.327 1.01611 236.776 1.01611C237.22 1.01611 237.638 1.10147 238.03 1.27197C238.422 1.44257 238.765 1.6728 239.057 1.96275C239.35 2.2527 239.581 2.59391 239.748 2.98616C239.916 3.37842 240 3.7964 240 4.2398C240 4.68899 239.916 5.10966 239.748 5.50202C239.581 5.89427 239.35 6.23692 239.057 6.52967C238.765 6.82252 238.422 7.05419 238.03 7.22469C237.638 7.39529 237.22 7.48054 236.776 7.48054ZM236.776 7.05419C237.168 7.05419 237.531 6.98165 237.864 6.83667C238.196 6.69169 238.482 6.49278 238.721 6.23971C238.959 5.98675 239.147 5.68957 239.283 5.34846C239.42 5.00736 239.488 4.63784 239.488 4.2398C239.488 3.84755 239.42 3.48082 239.283 3.13972C239.147 2.79851 238.959 2.50298 238.721 2.2527C238.482 2.00264 238.196 1.80496 237.864 1.65999C237.531 1.51501 237.168 1.44257 236.776 1.44257C236.384 1.44257 236.02 1.51501 235.685 1.65999C235.349 1.80496 235.061 2.00264 234.819 2.2527C234.577 2.50298 234.388 2.79851 234.252 3.13972C234.115 3.48082 234.047 3.84755 234.047 4.2398C234.047 4.63784 234.115 5.00736 234.252 5.34846C234.388 5.68957 234.577 5.98675 234.819 6.23971C235.061 6.49278 235.349 6.69169 235.685 6.83667C236.02 6.98165 236.384 7.05419 236.776 7.05419ZM238.388 6.04782H237.859L236.827 4.38478H236.017V6.04782H235.574V2.44036H237.151C237.629 2.44036 237.962 2.52561 238.149 2.69621C238.337 2.86681 238.431 3.09993 238.431 3.39557C238.431 3.57186 238.402 3.72252 238.345 3.84755C238.288 3.97269 238.209 4.07354 238.107 4.15032C238.004 4.22699 237.883 4.28393 237.744 4.32082C237.605 4.35791 237.455 4.3792 237.296 4.38478L238.388 6.04782ZM236.691 4.0351H237.1C237.248 4.0351 237.386 4.01805 237.514 3.98395C237.642 3.94985 237.747 3.88733 237.829 3.7964C237.912 3.70546 237.953 3.56906 237.953 3.38699C237.953 3.24491 237.926 3.13258 237.872 3.05012C237.818 2.96777 237.748 2.90515 237.663 2.86247C237.578 2.8199 237.481 2.79148 237.373 2.77722C237.265 2.76307 237.157 2.75594 237.049 2.75594H236.017V4.0351L236.691 4.0351Z" fill="black"/>
</g>
<defs>
<clipPath id="clip0_15050_84236">
<rect width="240" height="53.3333" fill="white" transform="translate(0 0.833496)"/>
</clipPath>
</defs>
</svg>
